<svg width="41" height="38" viewBox="0 0 41 38" fill="none" xmlns="http://www.w3.org/2000/svg">
<g id="profile-svgrepo-com 2" clip-path="url(#clip0_0_45)">
<g id="Group">
<g id="Group_2">
<g id="Group_3">
<path id="Vector" d="M20.2446 4.61829C16.3605 4.61829 13.2006 7.52199 13.2006 11.0912C13.2006 12.8234 13.944 14.789 15.1892 16.3492C16.5976 18.1139 18.3931 19.0858 20.2446 19.0858C22.0962 19.0858 23.8916 18.114 25.3001 16.3492C26.5453 14.789 27.2887 12.8234 27.2887 11.0912C27.2887 7.52199 24.1287 4.61829 20.2446 4.61829ZM20.2446 17.7058C18.9034 17.7058 17.5022 16.9139 16.4003 15.5331C15.353 14.2209 14.7024 12.5189 14.7024 11.0912C14.7024 8.28295 17.1886 5.99833 20.2446 5.99833C23.3006 5.99833 25.7868 8.28295 25.7868 11.0912C25.7869 14.0068 23.1774 17.7058 20.2446 17.7058Z" fill="black"/>
<path id="Vector_2" d="M20.2446 0.0385742C11.0642 0.0385742 3.59531 6.90181 3.59531 15.3379C3.59531 23.774 11.0641 30.6373 20.2446 30.6373C29.4251 30.6373 36.8939 23.774 36.8939 15.3379C36.8939 6.90181 29.425 0.0385742 20.2446 0.0385742ZM20.2446 29.2572C17.2311 29.2571 14.4205 28.444 12.0584 27.0444C12.1405 24.9312 13.1816 22.95 14.9443 21.5744C15.6448 21.0279 16.6676 20.9681 17.4896 21.4259C18.3775 21.9203 19.3045 22.171 20.2449 22.171C21.1851 22.171 22.1119 21.9204 22.9993 21.4262C23.8204 20.969 24.8406 21.0265 25.5377 21.5693C27.3017 22.9429 28.3487 24.9298 28.4307 27.0446C26.0686 28.4441 23.258 29.2572 20.2446 29.2572ZM29.8463 26.0955C29.522 23.935 28.3434 21.9451 26.5086 20.5164C25.3181 19.5896 23.5951 19.4808 22.221 20.246C20.922 20.9692 19.5672 20.9692 18.2679 20.2456C16.8923 19.4795 15.1661 19.591 13.9721 20.5226C12.1389 21.9531 10.965 23.9373 10.6416 26.0945C7.25863 23.5396 5.09712 19.6665 5.09712 15.338C5.09712 7.66277 11.8923 1.41862 20.2446 1.41862C28.597 1.41862 35.3921 7.66277 35.3921 15.3379C35.3921 19.6669 33.2301 23.5405 29.8463 26.0955Z" fill="black"/>
<path id="Vector_3" d="M30.4295 32.4578H10.0597C9.64501 32.4578 9.30881 32.7668 9.30881 33.1478C9.30881 33.5289 9.64501 33.8379 10.0597 33.8379H30.4295C30.8442 33.8379 31.1804 33.5289 31.1804 33.1478C31.1805 32.7668 30.8442 32.4578 30.4295 32.4578Z" fill="black"/>
<path id="Vector_4" d="M30.4295 35.6585H10.0597C9.64501 35.6585 9.30881 35.9675 9.30881 36.3486C9.30881 36.7296 9.64501 37.0386 10.0597 37.0386H30.4295C30.8442 37.0386 31.1804 36.7296 31.1804 36.3486C31.1805 35.9675 30.8442 35.6585 30.4295 35.6585Z" fill="black"/>
</g>
</g>
</g>
</g>
<defs>
<clipPath id="clip0_0_45">
<rect width="40.2647" height="37" fill="white" transform="translate(0.112305 0.0385742)"/>
</clipPath>
</defs>
</svg>
